<svg xmlns="http://www.w3.org/2000/svg" xmlns:xlink="http://www.w3.org/1999/xlink" width="500" zoomAndPan="magnify" viewBox="0 0 375 374.999991" height="500" preserveAspectRatio="xMidYMid meet" version="1.0"><defs><g/><clipPath id="01714551ca"><path d="M 93 171 L 131.332031 171 L 131.332031 204 L 93 204 Z M 93 171 " clip-rule="nonzero"/></clipPath><clipPath id="685ed4b6b8"><path d="M 79 151.261719 L 111 151.261719 L 111 183 L 79 183 Z M 79 151.261719 " clip-rule="nonzero"/></clipPath><clipPath id="d432f64059"><path d="M 58 151.261719 L 90 151.261719 L 90 183 L 58 183 Z M 58 151.261719 " clip-rule="nonzero"/></clipPath><clipPath id="84440b3fed"><path d="M 37.582031 171 L 70 171 L 70 204 L 37.582031 204 Z M 37.582031 171 " clip-rule="nonzero"/></clipPath></defs><rect x="-37.5" width="450" fill="#ffffff" y="-37.499999" height="449.999989" fill-opacity="1"/><rect x="-37.5" width="450" fill="#141827" y="-37.499999" height="449.999989" fill-opacity="1"/><g clip-path="url(#01714551ca)"><path fill="#a2caff" d="M 120.386719 187.445312 L 115.679688 182.738281 L 110.976562 187.445312 L 115.679688 192.148438 Z M 115.679688 171.792969 C 115.957031 171.792969 116.230469 171.898438 116.441406 172.109375 L 131.015625 186.683594 C 131.21875 186.886719 131.332031 187.160156 131.332031 187.445312 C 131.332031 187.730469 131.21875 188.003906 131.015625 188.207031 L 116.441406 202.78125 C 116.019531 203.199219 115.339844 203.199219 114.917969 202.78125 L 105.28125 193.140625 L 105.167969 193.253906 C 104.746094 193.671875 104.066406 193.671875 103.644531 193.253906 C 103.226562 192.832031 103.226562 192.152344 103.644531 191.730469 L 114.917969 180.457031 C 115.339844 180.035156 116.019531 180.035156 116.441406 180.457031 L 122.671875 186.683594 C 122.871094 186.886719 122.984375 187.160156 122.984375 187.445312 C 122.984375 187.730469 122.871094 188.003906 122.671875 188.207031 L 116.441406 194.433594 C 116.019531 194.855469 115.339844 194.855469 114.917969 194.433594 L 109.453125 188.96875 L 106.800781 191.617188 L 115.679688 200.496094 L 128.730469 187.445312 L 115.679688 174.394531 L 95.644531 194.429688 C 95.222656 194.851562 94.542969 194.851562 94.121094 194.429688 C 93.699219 194.011719 93.699219 193.328125 94.121094 192.910156 L 114.917969 172.109375 C 115.128906 171.898438 115.40625 171.792969 115.679688 171.792969 " fill-opacity="1" fill-rule="nonzero"/></g><g clip-path="url(#685ed4b6b8)"><path fill="#a2caff" d="M 84.484375 169.738281 C 84.757812 169.738281 85.035156 169.84375 85.242188 170.054688 L 95.644531 180.453125 C 96.0625 180.871094 96.0625 181.554688 95.644531 181.976562 C 95.222656 182.394531 94.542969 182.394531 94.121094 181.976562 L 83.722656 171.574219 C 83.300781 171.15625 83.300781 170.472656 83.722656 170.054688 C 83.933594 169.84375 84.207031 169.738281 84.484375 169.738281 Z M 99.585938 166.640625 L 94.882812 161.933594 L 90.175781 166.640625 L 94.882812 171.34375 Z M 94.882812 159.335938 C 95.167969 159.335938 95.441406 159.449219 95.644531 159.648438 L 101.871094 165.878906 C 102.292969 166.296875 102.292969 166.980469 101.871094 167.402344 L 95.644531 173.628906 C 95.238281 174.03125 94.523438 174.03125 94.121094 173.628906 L 87.894531 167.402344 C 87.472656 166.980469 87.472656 166.296875 87.894531 165.878906 L 94.121094 159.648438 C 94.324219 159.449219 94.597656 159.335938 94.882812 159.335938 Z M 94.882812 150.988281 C 95.167969 150.988281 95.441406 151.101562 95.644531 151.304688 L 110.21875 165.878906 C 110.636719 166.296875 110.636719 166.980469 110.21875 167.402344 L 99.824219 177.800781 C 99.402344 178.21875 98.71875 178.21875 98.300781 177.800781 C 97.878906 177.378906 97.878906 176.695312 98.300781 176.277344 L 107.933594 166.640625 L 94.882812 153.589844 L 81.070312 167.402344 C 80.648438 167.820312 79.96875 167.820312 79.546875 167.402344 C 79.125 166.980469 79.125 166.296875 79.546875 165.878906 L 94.121094 151.304688 C 94.324219 151.101562 94.597656 150.988281 94.882812 150.988281 " fill-opacity="1" fill-rule="nonzero"/></g><path fill="#a2caff" d="M 84.476562 190.535156 C 84.753906 190.535156 85.03125 190.640625 85.238281 190.851562 L 95.644531 201.257812 C 96.066406 201.675781 96.066406 202.359375 95.644531 202.78125 C 95.222656 203.199219 94.542969 203.199219 94.121094 202.777344 L 83.71875 192.375 C 83.296875 191.953125 83.296875 191.269531 83.71875 190.851562 C 83.925781 190.640625 84.203125 190.535156 84.476562 190.535156 Z M 109.457031 186.367188 C 109.734375 186.367188 110.007812 186.472656 110.21875 186.683594 C 110.640625 187.101562 110.640625 187.785156 110.21875 188.207031 L 99.8125 198.609375 C 99.394531 199.03125 98.710938 199.03125 98.292969 198.609375 C 97.871094 198.191406 97.871094 197.507812 98.292969 197.085938 L 108.695312 186.683594 C 108.90625 186.472656 109.183594 186.367188 109.457031 186.367188 Z M 99.589844 187.445312 L 94.882812 182.738281 L 90.179688 187.445312 L 94.882812 192.148438 Z M 94.882812 180.140625 C 95.160156 180.140625 95.433594 180.242188 95.644531 180.453125 L 101.875 186.683594 C 102.074219 186.882812 102.1875 187.15625 102.1875 187.445312 C 102.1875 187.730469 102.074219 188.003906 101.875 188.207031 L 95.644531 194.433594 C 95.222656 194.855469 94.542969 194.855469 94.121094 194.433594 L 87.894531 188.203125 C 87.472656 187.785156 87.472656 187.101562 87.894531 186.683594 L 94.121094 180.453125 C 94.332031 180.242188 94.609375 180.140625 94.882812 180.140625 Z M 90.714844 175.960938 C 90.992188 175.960938 91.265625 176.066406 91.476562 176.277344 C 91.898438 176.695312 91.898438 177.378906 91.476562 177.800781 L 81.070312 188.207031 C 80.652344 188.625 79.96875 188.625 79.546875 188.203125 C 79.128906 187.785156 79.128906 187.101562 79.546875 186.683594 L 89.953125 176.277344 C 90.164062 176.066406 90.441406 175.960938 90.714844 175.960938 Z M 94.882812 171.792969 C 95.160156 171.792969 95.433594 171.898438 95.644531 172.109375 L 106.042969 182.503906 C 106.460938 182.925781 106.460938 183.609375 106.042969 184.027344 C 105.621094 184.449219 104.941406 184.449219 104.519531 184.027344 L 94.121094 173.628906 C 93.703125 173.210938 93.703125 172.527344 94.121094 172.109375 C 94.332031 171.898438 94.609375 171.792969 94.882812 171.792969 " fill-opacity="1" fill-rule="nonzero"/><path fill="#a2caff" d="M 94.882812 180.136719 C 95.160156 180.136719 95.433594 180.242188 95.644531 180.453125 C 96.066406 180.875 96.066406 181.554688 95.644531 181.976562 L 85.25 192.375 C 84.828125 192.792969 84.144531 192.792969 83.726562 192.375 C 83.304688 191.953125 83.304688 191.269531 83.726562 190.851562 L 94.121094 180.453125 C 94.332031 180.242188 94.609375 180.136719 94.882812 180.136719 Z M 89.191406 177.039062 L 84.488281 172.332031 L 79.78125 177.039062 L 84.488281 181.742188 Z M 84.488281 169.734375 C 84.761719 169.734375 85.039062 169.839844 85.25 170.046875 L 91.476562 176.277344 C 91.679688 176.476562 91.792969 176.75 91.792969 177.039062 C 91.792969 177.324219 91.679688 177.597656 91.476562 177.800781 L 85.25 184.027344 C 85.046875 184.230469 84.773438 184.34375 84.488281 184.34375 C 84.199219 184.34375 83.925781 184.230469 83.726562 184.027344 L 77.496094 177.800781 C 77.078125 177.378906 77.078125 176.695312 77.496094 176.277344 L 83.726562 170.046875 C 83.9375 169.839844 84.210938 169.734375 84.488281 169.734375 Z M 88.660156 165.558594 C 88.933594 165.558594 89.210938 165.664062 89.421875 165.875 L 96.164062 172.617188 C 96.585938 173.039062 96.585938 173.71875 96.164062 174.140625 C 95.742188 174.558594 95.0625 174.558594 94.640625 174.140625 L 87.898438 167.398438 C 87.476562 166.976562 87.476562 166.296875 87.898438 165.875 C 88.109375 165.664062 88.382812 165.558594 88.660156 165.558594 Z M 84.488281 161.386719 C 84.761719 161.386719 85.039062 161.492188 85.25 161.703125 C 85.667969 162.125 85.667969 162.804688 85.25 163.226562 L 75.027344 173.445312 C 74.605469 173.867188 73.925781 173.867188 73.503906 173.445312 C 73.082031 173.023438 73.082031 172.34375 73.503906 171.921875 L 83.726562 161.703125 C 83.9375 161.492188 84.210938 161.386719 84.488281 161.386719 " fill-opacity="1" fill-rule="nonzero"/><g clip-path="url(#d432f64059)"><path fill="#a2caff" d="M 78.789062 166.640625 L 74.082031 161.9375 L 69.378906 166.640625 L 74.082031 171.347656 Z M 74.082031 159.335938 C 74.359375 159.335938 74.632812 159.441406 74.84375 159.652344 L 81.070312 165.878906 C 81.492188 166.300781 81.492188 166.980469 81.070312 167.402344 L 75.605469 172.871094 L 78.253906 175.519531 L 87.894531 165.878906 C 88.316406 165.460938 88.996094 165.460938 89.417969 165.878906 C 89.839844 166.300781 89.839844 166.980469 89.417969 167.402344 L 79.023438 177.800781 C 78.96875 177.855469 78.910156 177.902344 78.847656 177.941406 C 78.429688 178.21875 77.859375 178.171875 77.492188 177.804688 L 67.09375 167.402344 C 66.890625 167.199219 66.777344 166.925781 66.777344 166.640625 C 66.777344 166.355469 66.890625 166.082031 67.09375 165.878906 L 73.320312 159.652344 C 73.53125 159.441406 73.808594 159.335938 74.082031 159.335938 Z M 74.082031 150.992188 C 74.359375 150.992188 74.632812 151.097656 74.84375 151.304688 L 85.242188 161.707031 C 85.664062 162.128906 85.664062 162.808594 85.242188 163.230469 C 84.824219 163.648438 84.140625 163.648438 83.722656 163.230469 L 74.082031 153.589844 L 61.03125 166.640625 L 74.84375 180.453125 C 75.265625 180.875 75.265625 181.558594 74.84375 181.976562 C 74.421875 182.398438 73.742188 182.398438 73.320312 181.976562 L 58.746094 167.402344 C 58.542969 167.199219 58.429688 166.925781 58.429688 166.640625 C 58.429688 166.355469 58.542969 166.082031 58.746094 165.878906 L 73.320312 151.304688 C 73.53125 151.097656 73.808594 150.992188 74.082031 150.992188 " fill-opacity="1" fill-rule="nonzero"/></g><path fill="#a2caff" d="M 84.476562 202.992188 C 84.753906 202.992188 85.03125 203.09375 85.238281 203.304688 C 85.660156 203.726562 85.660156 204.410156 85.238281 204.828125 L 81.0625 209.007812 C 80.640625 209.425781 79.960938 209.425781 79.539062 209.007812 C 79.121094 208.585938 79.121094 207.90625 79.539062 207.484375 L 83.71875 203.304688 C 83.925781 203.09375 84.203125 202.992188 84.476562 202.992188 Z M 99.582031 208.246094 L 94.875 203.539062 L 90.171875 208.246094 L 94.875 212.949219 Z M 94.875 200.941406 C 95.160156 200.941406 95.433594 201.054688 95.636719 201.257812 L 101.863281 207.484375 C 102.285156 207.90625 102.285156 208.585938 101.863281 209.007812 L 95.636719 215.234375 C 95.234375 215.636719 94.515625 215.636719 94.113281 215.234375 L 87.886719 209.007812 C 87.464844 208.585938 87.464844 207.90625 87.886719 207.484375 L 94.113281 201.257812 C 94.316406 201.054688 94.589844 200.941406 94.875 200.941406 Z M 94.875 192.59375 C 95.152344 192.59375 95.425781 192.699219 95.636719 192.910156 L 110.210938 207.484375 C 110.414062 207.6875 110.527344 207.960938 110.527344 208.246094 C 110.527344 208.53125 110.414062 208.804688 110.210938 209.007812 L 95.636719 223.582031 C 95.214844 224 94.535156 224 94.113281 223.582031 L 83.710938 213.179688 C 83.292969 212.757812 83.292969 212.078125 83.710938 211.65625 C 84.132812 211.234375 84.816406 211.234375 85.234375 211.65625 L 94.875 221.296875 L 107.925781 208.246094 L 94.113281 194.433594 C 93.691406 194.011719 93.691406 193.332031 94.113281 192.910156 C 94.324219 192.699219 94.597656 192.59375 94.875 192.59375 " fill-opacity="1" fill-rule="nonzero"/><path fill="#a2caff" d="M 94.878906 200.9375 C 95.15625 200.9375 95.429688 201.042969 95.640625 201.25 C 96.0625 201.671875 96.0625 202.355469 95.640625 202.773438 L 85.238281 213.175781 C 84.820312 213.59375 84.136719 213.59375 83.71875 213.175781 C 83.296875 212.753906 83.296875 212.070312 83.71875 211.652344 L 94.117188 201.25 C 94.328125 201.042969 94.601562 200.9375 94.878906 200.9375 Z M 89.183594 197.839844 L 84.476562 193.132812 L 79.773438 197.839844 L 84.476562 202.542969 Z M 84.476562 190.535156 C 84.753906 190.535156 85.03125 190.640625 85.238281 190.847656 L 91.46875 197.078125 C 91.886719 197.5 91.886719 198.179688 91.46875 198.601562 L 85.238281 204.828125 C 84.835938 205.234375 84.121094 205.234375 83.71875 204.828125 L 77.488281 198.601562 C 77.070312 198.179688 77.070312 197.5 77.488281 197.078125 L 83.71875 190.847656 C 83.925781 190.640625 84.203125 190.535156 84.476562 190.535156 " fill-opacity="1" fill-rule="nonzero"/><path fill="#a2caff" d="M 63.652344 190.519531 C 63.929688 190.519531 64.203125 190.625 64.414062 190.835938 L 74.835938 201.257812 C 75.257812 201.675781 75.257812 202.359375 74.835938 202.777344 C 74.414062 203.199219 73.734375 203.199219 73.3125 202.777344 L 62.894531 192.359375 C 62.472656 191.9375 62.472656 191.257812 62.894531 190.835938 C 63.101562 190.625 63.378906 190.519531 63.652344 190.519531 Z M 78.777344 187.445312 L 74.074219 182.738281 L 69.367188 187.445312 L 74.074219 192.148438 Z M 74.074219 180.136719 C 74.347656 180.136719 74.625 180.242188 74.835938 180.453125 L 81.0625 186.683594 C 81.484375 187.101562 81.484375 187.785156 81.0625 188.203125 L 74.835938 194.433594 C 74.429688 194.835938 73.714844 194.835938 73.3125 194.433594 L 67.085938 188.203125 C 66.882812 188.003906 66.769531 187.730469 66.769531 187.445312 C 66.769531 187.15625 66.882812 186.882812 67.085938 186.683594 L 73.3125 180.453125 C 73.523438 180.242188 73.796875 180.136719 74.074219 180.136719 Z M 69.910156 175.957031 C 70.183594 175.957031 70.460938 176.0625 70.671875 176.273438 C 71.089844 176.691406 71.089844 177.375 70.671875 177.796875 L 60.261719 188.203125 C 59.839844 188.625 59.160156 188.625 58.738281 188.203125 C 58.316406 187.785156 58.316406 187.101562 58.738281 186.683594 L 69.148438 176.273438 C 69.359375 176.0625 69.632812 175.957031 69.910156 175.957031 Z M 74.074219 171.792969 C 74.347656 171.792969 74.625 171.898438 74.835938 172.109375 L 85.238281 182.511719 C 85.660156 182.933594 85.660156 183.617188 85.238281 184.035156 C 84.820312 184.457031 84.136719 184.457031 83.71875 184.035156 L 73.3125 173.628906 C 72.890625 173.210938 72.890625 172.527344 73.3125 172.109375 C 73.523438 171.898438 73.796875 171.792969 74.074219 171.792969 " fill-opacity="1" fill-rule="nonzero"/><path fill="#a2caff" d="M 78.765625 208.222656 L 74.058594 203.515625 L 69.355469 208.222656 L 74.058594 212.925781 Z M 74.058594 200.917969 C 74.34375 200.917969 74.617188 201.03125 74.820312 201.230469 L 81.050781 207.460938 C 81.46875 207.878906 81.46875 208.5625 81.050781 208.984375 L 74.820312 215.210938 C 74.417969 215.617188 73.703125 215.617188 73.296875 215.210938 L 67.070312 208.984375 C 66.648438 208.5625 66.648438 207.878906 67.070312 207.460938 L 73.296875 201.230469 C 73.5 201.03125 73.773438 200.917969 74.058594 200.917969 Z M 69.886719 196.742188 C 70.160156 196.742188 70.4375 196.847656 70.648438 197.058594 C 71.070312 197.480469 71.070312 198.160156 70.648438 198.582031 L 61.007812 208.222656 L 74.058594 221.273438 L 87.871094 207.460938 C 88.292969 207.039062 88.972656 207.039062 89.394531 207.460938 C 89.816406 207.878906 89.816406 208.5625 89.394531 208.984375 L 74.820312 223.558594 C 74.417969 223.960938 73.703125 223.960938 73.296875 223.558594 L 58.722656 208.984375 C 58.523438 208.78125 58.40625 208.507812 58.40625 208.222656 C 58.40625 207.9375 58.523438 207.660156 58.722656 207.460938 L 69.125 197.058594 C 69.335938 196.847656 69.609375 196.742188 69.886719 196.742188 Z M 74.058594 192.570312 C 74.335938 192.570312 74.609375 192.675781 74.820312 192.886719 L 85.242188 203.304688 C 85.660156 203.726562 85.660156 204.410156 85.242188 204.828125 C 84.820312 205.25 84.136719 205.25 83.71875 204.828125 L 73.296875 194.410156 C 72.878906 193.988281 72.878906 193.308594 73.296875 192.886719 C 73.507812 192.675781 73.785156 192.570312 74.058594 192.570312 " fill-opacity="1" fill-rule="nonzero"/><g clip-path="url(#84440b3fed)"><path fill="#a2caff" d="M 57.964844 187.417969 L 53.257812 182.714844 L 48.554688 187.417969 L 53.257812 192.125 Z M 53.257812 180.113281 C 53.535156 180.113281 53.808594 180.21875 54.019531 180.429688 L 60.246094 186.660156 C 60.449219 186.859375 60.5625 187.132812 60.5625 187.417969 C 60.5625 187.703125 60.449219 187.980469 60.246094 188.179688 L 54.019531 194.410156 C 53.597656 194.828125 52.917969 194.828125 52.496094 194.410156 L 46.269531 188.179688 C 45.847656 187.761719 45.847656 187.078125 46.269531 186.660156 L 52.496094 180.429688 C 52.707031 180.21875 52.984375 180.113281 53.257812 180.113281 Z M 53.257812 171.769531 C 53.535156 171.769531 53.808594 171.875 54.019531 172.085938 L 64.4375 182.503906 C 64.859375 182.925781 64.859375 183.605469 64.4375 184.027344 C 64.019531 184.445312 63.335938 184.445312 62.917969 184.027344 L 53.257812 174.367188 L 40.207031 187.417969 L 53.257812 200.46875 L 67.90625 185.820312 C 68.328125 185.402344 69.007812 185.402344 69.429688 185.820312 C 69.851562 186.242188 69.851562 186.921875 69.429688 187.34375 L 54.019531 202.753906 C 53.816406 202.957031 53.542969 203.070312 53.257812 203.070312 C 52.972656 203.070312 52.699219 202.957031 52.496094 202.753906 L 37.921875 188.179688 C 37.503906 187.761719 37.503906 187.078125 37.921875 186.660156 L 52.496094 172.085938 C 52.707031 171.875 52.984375 171.769531 53.257812 171.769531 " fill-opacity="1" fill-rule="nonzero"/></g><g fill="#ffffff" fill-opacity="1"><g transform="translate(137.768077, 197.601498)"><g><path d="M 12.984375 0.4375 C 10.710938 0.4375 8.65625 -0.03125 6.8125 -0.96875 C 4.976562 -1.90625 3.519531 -3.289062 2.4375 -5.125 C 1.351562 -6.96875 0.8125 -9.273438 0.8125 -12.046875 C 0.84375 -14.742188 1.390625 -17.039062 2.453125 -18.9375 C 3.523438 -20.84375 4.988281 -22.285156 6.84375 -23.265625 C 8.695312 -24.242188 10.789062 -24.734375 13.125 -24.734375 C 15.363281 -24.734375 17.273438 -24.328125 18.859375 -23.515625 C 20.441406 -22.710938 21.710938 -21.617188 22.671875 -20.234375 C 23.640625 -18.859375 24.269531 -17.304688 24.5625 -15.578125 L 20.03125 -15.578125 C 19.820312 -16.847656 19.347656 -17.847656 18.609375 -18.578125 C 17.878906 -19.304688 17.023438 -19.820312 16.046875 -20.125 C 15.078125 -20.425781 14.101562 -20.578125 13.125 -20.578125 C 10.5625 -20.578125 8.59375 -19.859375 7.21875 -18.421875 C 5.851562 -16.984375 5.171875 -14.957031 5.171875 -12.34375 C 5.171875 -9.550781 5.835938 -7.40625 7.171875 -5.90625 C 8.515625 -4.414062 10.46875 -3.671875 13.03125 -3.671875 C 14.09375 -3.671875 15.128906 -3.832031 16.140625 -4.15625 C 17.148438 -4.488281 18.015625 -5.035156 18.734375 -5.796875 C 19.453125 -6.566406 19.910156 -7.597656 20.109375 -8.890625 L 24.6875 -8.890625 C 24.363281 -7.128906 23.726562 -5.535156 22.78125 -4.109375 C 21.832031 -2.691406 20.546875 -1.578125 18.921875 -0.765625 C 17.296875 0.0351562 15.316406 0.4375 12.984375 0.4375 Z M 12.984375 0.4375 "/></g></g></g><g fill="#ffffff" fill-opacity="1"><g transform="translate(163.742268, 197.601498)"><g><path d="M 1.8125 0 L 1.8125 -17.734375 L 5.90625 -17.734375 L 6.25 -12.5625 L 6.21875 -8.765625 L 6.21875 0 Z M 6.21875 -7.640625 L 6.078125 -11.5625 C 6.078125 -12.164062 6.191406 -12.820312 6.421875 -13.53125 C 6.660156 -14.238281 7.046875 -14.90625 7.578125 -15.53125 C 8.109375 -16.164062 8.804688 -16.691406 9.671875 -17.109375 C 10.535156 -17.523438 11.597656 -17.734375 12.859375 -17.734375 L 13.515625 -17.734375 L 13.515625 -12.8125 L 12.859375 -12.8125 C 11.617188 -12.8125 10.566406 -12.71875 9.703125 -12.53125 C 8.847656 -12.34375 8.164062 -12.046875 7.65625 -11.640625 C 7.15625 -11.242188 6.789062 -10.710938 6.5625 -10.046875 C 6.332031 -9.390625 6.21875 -8.585938 6.21875 -7.640625 Z M 6.21875 -7.640625 "/></g></g></g><g fill="#ffffff" fill-opacity="1"><g transform="translate(178.325789, 197.601498)"><g><path d="M -0.09375 8.25 L -0.09375 4.828125 L 2.625 4.828125 C 3.0625 4.828125 3.441406 4.785156 3.765625 4.703125 C 4.097656 4.617188 4.421875 4.394531 4.734375 4.03125 C 5.054688 3.675781 5.40625 3.09375 5.78125 2.28125 L 6.953125 -0.296875 L 0.046875 -17.734375 L 4.578125 -17.734375 L 9.109375 -4.828125 L 13.984375 -17.734375 L 18.515625 -17.734375 L 9.796875 2.71875 C 9.273438 3.925781 8.789062 4.894531 8.34375 5.625 C 7.90625 6.363281 7.453125 6.921875 6.984375 7.296875 C 6.523438 7.671875 5.992188 7.921875 5.390625 8.046875 C 4.785156 8.179688 4.082031 8.25 3.28125 8.25 Z M -0.09375 8.25 "/></g></g></g><g fill="#ffffff" fill-opacity="1"><g transform="translate(197.353396, 197.601498)"><g><path d="M 12.609375 0.4375 C 11.515625 0.4375 10.597656 0.269531 9.859375 -0.0625 C 9.128906 -0.394531 8.539062 -0.789062 8.09375 -1.25 C 7.644531 -1.707031 7.3125 -2.125 7.09375 -2.5 C 6.882812 -2.875 6.765625 -3.09375 6.734375 -3.15625 L 6.640625 -3.15625 L 6.640625 7.890625 L 2.109375 7.890625 L 2.109375 -17.734375 L 5.953125 -17.734375 L 6.6875 -13.859375 L 6.78125 -13.859375 C 6.800781 -13.941406 6.898438 -14.179688 7.078125 -14.578125 C 7.253906 -14.984375 7.554688 -15.429688 7.984375 -15.921875 C 8.410156 -16.410156 9 -16.832031 9.75 -17.1875 C 10.5 -17.550781 11.4375 -17.734375 12.5625 -17.734375 C 14.34375 -17.734375 15.769531 -17.34375 16.84375 -16.5625 C 17.925781 -15.789062 18.71875 -14.710938 19.21875 -13.328125 C 19.726562 -11.953125 19.984375 -10.359375 19.984375 -8.546875 C 19.984375 -6.703125 19.722656 -5.109375 19.203125 -3.765625 C 18.679688 -2.429688 17.878906 -1.394531 16.796875 -0.65625 C 15.722656 0.0703125 14.328125 0.4375 12.609375 0.4375 Z M 11.265625 -3.28125 C 12.472656 -3.28125 13.398438 -3.53125 14.046875 -4.03125 C 14.691406 -4.539062 15.132812 -5.203125 15.375 -6.015625 C 15.625 -6.835938 15.75 -7.695312 15.75 -8.59375 C 15.75 -9.476562 15.617188 -10.320312 15.359375 -11.125 C 15.097656 -11.9375 14.628906 -12.585938 13.953125 -13.078125 C 13.285156 -13.566406 12.359375 -13.8125 11.171875 -13.8125 C 10.109375 -13.8125 9.242188 -13.585938 8.578125 -13.140625 C 7.921875 -12.691406 7.441406 -12.070312 7.140625 -11.28125 C 6.835938 -10.488281 6.6875 -9.59375 6.6875 -8.59375 C 6.6875 -7.550781 6.84375 -6.632812 7.15625 -5.84375 C 7.476562 -5.050781 7.976562 -4.425781 8.65625 -3.96875 C 9.332031 -3.507812 10.203125 -3.28125 11.265625 -3.28125 Z M 11.265625 -3.28125 "/></g></g></g><g fill="#ffffff" fill-opacity="1"><g transform="translate(218.581475, 197.601498)"><g><path d="M 7.421875 0 C 6.015625 0 4.957031 -0.34375 4.25 -1.03125 C 3.539062 -1.726562 3.1875 -2.851562 3.1875 -4.40625 L 3.1875 -15.109375 L 7.296875 -15.109375 L 7.296875 -3.453125 L 11.4375 -3.453125 L 11.4375 0 Z M 0.515625 -14.625 L 0.515625 -17.734375 C 1.148438 -17.734375 1.664062 -17.773438 2.0625 -17.859375 C 2.46875 -17.953125 2.789062 -18.140625 3.03125 -18.421875 C 3.28125 -18.710938 3.460938 -19.160156 3.578125 -19.765625 C 3.691406 -20.367188 3.75 -21.203125 3.75 -22.265625 L 7.296875 -22.265625 L 7.296875 -17.734375 L 11.34375 -17.734375 L 11.34375 -14.625 Z M 0.515625 -14.625 "/></g></g></g><g fill="#ffffff" fill-opacity="1"><g transform="translate(231.741154, 197.601498)"><g><path d="M 9.921875 0.4375 C 7.960938 0.4375 6.316406 0.046875 4.984375 -0.734375 C 3.648438 -1.515625 2.648438 -2.585938 1.984375 -3.953125 C 1.328125 -5.316406 1 -6.875 1 -8.625 C 1 -10.414062 1.328125 -11.992188 1.984375 -13.359375 C 2.648438 -14.722656 3.648438 -15.789062 4.984375 -16.5625 C 6.316406 -17.34375 7.976562 -17.734375 9.96875 -17.734375 C 12.875 -17.734375 15.082031 -16.898438 16.59375 -15.234375 C 18.101562 -13.566406 18.859375 -11.363281 18.859375 -8.625 C 18.859375 -6.925781 18.539062 -5.382812 17.90625 -4 C 17.269531 -2.625 16.289062 -1.539062 14.96875 -0.75 C 13.644531 0.0390625 11.960938 0.4375 9.921875 0.4375 Z M 9.921875 -3.28125 C 11.222656 -3.28125 12.207031 -3.550781 12.875 -4.09375 C 13.550781 -4.644531 14.003906 -5.34375 14.234375 -6.1875 C 14.472656 -7.039062 14.59375 -7.898438 14.59375 -8.765625 C 14.59375 -9.679688 14.472656 -10.554688 14.234375 -11.390625 C 14.003906 -12.222656 13.550781 -12.921875 12.875 -13.484375 C 12.207031 -14.046875 11.222656 -14.328125 9.921875 -14.328125 C 8.660156 -14.328125 7.691406 -14.046875 7.015625 -13.484375 C 6.335938 -12.921875 5.875 -12.222656 5.625 -11.390625 C 5.382812 -10.554688 5.265625 -9.679688 5.265625 -8.765625 C 5.265625 -7.898438 5.382812 -7.039062 5.625 -6.1875 C 5.875 -5.34375 6.335938 -4.644531 7.015625 -4.09375 C 7.691406 -3.550781 8.660156 -3.28125 9.921875 -3.28125 Z M 9.921875 -3.28125 "/></g></g></g><g fill="#ffffff" fill-opacity="1"><g transform="translate(252.106304, 197.601498)"><g><path d="M 12.515625 0.46875 C 10.148438 0.46875 8.082031 -0.00390625 6.3125 -0.953125 C 4.550781 -1.898438 3.191406 -3.304688 2.234375 -5.171875 C 1.285156 -7.046875 0.84375 -9.320312 0.90625 -12 C 0.96875 -14.726562 1.515625 -17.039062 2.546875 -18.9375 C 3.578125 -20.84375 5.019531 -22.285156 6.875 -23.265625 C 8.738281 -24.242188 10.863281 -24.734375 13.25 -24.734375 C 16.5625 -24.734375 19.128906 -24.019531 20.953125 -22.59375 C 22.773438 -21.164062 23.976562 -19.070312 24.5625 -16.3125 L 20.328125 -15.703125 C 20.035156 -16.910156 19.535156 -17.875 18.828125 -18.59375 C 18.128906 -19.3125 17.289062 -19.820312 16.3125 -20.125 C 15.332031 -20.425781 14.3125 -20.578125 13.25 -20.578125 C 10.488281 -20.578125 8.453125 -19.820312 7.140625 -18.3125 C 5.828125 -16.800781 5.1875 -14.8125 5.21875 -12.34375 C 5.21875 -9.582031 5.957031 -7.457031 7.4375 -5.96875 C 8.925781 -4.488281 11.019531 -3.75 13.71875 -3.75 C 14.8125 -3.75 15.851562 -3.925781 16.84375 -4.28125 C 17.84375 -4.644531 18.703125 -5.191406 19.421875 -5.921875 C 20.140625 -6.660156 20.628906 -7.609375 20.890625 -8.765625 L 15.53125 -8.765625 L 15.53125 -12 L 25.03125 -12 L 25.03125 0 L 22.046875 0 L 21.0625 -4.234375 L 20.96875 -4.234375 C 20.769531 -3.679688 20.441406 -3.128906 19.984375 -2.578125 C 19.523438 -2.035156 18.945312 -1.535156 18.25 -1.078125 C 17.5625 -0.617188 16.742188 -0.25 15.796875 0.03125 C 14.847656 0.320312 13.753906 0.46875 12.515625 0.46875 Z M 12.515625 0.46875 "/></g></g></g><g fill="#ffffff" fill-opacity="1"><g transform="translate(278.986574, 197.601498)"><g><path d="M 1.8125 0 L 1.8125 -17.734375 L 5.90625 -17.734375 L 6.25 -12.5625 L 6.21875 -8.765625 L 6.21875 0 Z M 6.21875 -7.640625 L 6.078125 -11.5625 C 6.078125 -12.164062 6.191406 -12.820312 6.421875 -13.53125 C 6.660156 -14.238281 7.046875 -14.90625 7.578125 -15.53125 C 8.109375 -16.164062 8.804688 -16.691406 9.671875 -17.109375 C 10.535156 -17.523438 11.597656 -17.734375 12.859375 -17.734375 L 13.515625 -17.734375 L 13.515625 -12.8125 L 12.859375 -12.8125 C 11.617188 -12.8125 10.566406 -12.71875 9.703125 -12.53125 C 8.847656 -12.34375 8.164062 -12.046875 7.65625 -11.640625 C 7.15625 -11.242188 6.789062 -10.710938 6.5625 -10.046875 C 6.332031 -9.390625 6.21875 -8.585938 6.21875 -7.640625 Z M 6.21875 -7.640625 "/></g></g></g><g fill="#ffffff" fill-opacity="1"><g transform="translate(293.570094, 197.601498)"><g><path d="M 7.6875 0.4375 C 6.070312 0.4375 4.757812 0.0546875 3.75 -0.703125 C 2.75 -1.472656 2.023438 -2.539062 1.578125 -3.90625 C 1.128906 -5.269531 0.90625 -6.84375 0.90625 -8.625 C 0.90625 -10.4375 1.132812 -12.035156 1.59375 -13.421875 C 2.050781 -14.804688 2.773438 -15.878906 3.765625 -16.640625 C 4.765625 -17.398438 6.070312 -17.78125 7.6875 -17.78125 C 8.71875 -17.78125 9.582031 -17.632812 10.28125 -17.34375 C 10.988281 -17.0625 11.566406 -16.71875 12.015625 -16.3125 C 12.460938 -15.90625 12.800781 -15.507812 13.03125 -15.125 C 13.257812 -14.738281 13.421875 -14.429688 13.515625 -14.203125 L 13.59375 -14.203125 L 13.59375 -17.734375 L 18.125 -17.734375 L 18.125 0 L 14.328125 0 L 13.59375 -2.890625 L 13.515625 -2.890625 C 13.453125 -2.691406 13.289062 -2.410156 13.03125 -2.046875 C 12.769531 -1.691406 12.414062 -1.316406 11.96875 -0.921875 C 11.53125 -0.535156 10.957031 -0.210938 10.25 0.046875 C 9.539062 0.304688 8.6875 0.4375 7.6875 0.4375 Z M 9.5 -3.28125 C 10.5625 -3.28125 11.394531 -3.507812 12 -3.96875 C 12.601562 -4.425781 13.019531 -5.066406 13.25 -5.890625 C 13.476562 -6.710938 13.59375 -7.613281 13.59375 -8.59375 C 13.59375 -9.65625 13.46875 -10.582031 13.21875 -11.375 C 12.976562 -12.164062 12.5625 -12.78125 11.96875 -13.21875 C 11.382812 -13.664062 10.5625 -13.890625 9.5 -13.890625 C 8.375 -13.890625 7.5 -13.644531 6.875 -13.15625 C 6.257812 -12.664062 5.828125 -12.023438 5.578125 -11.234375 C 5.335938 -10.453125 5.21875 -9.570312 5.21875 -8.59375 C 5.21875 -7.613281 5.335938 -6.71875 5.578125 -5.90625 C 5.828125 -5.101562 6.257812 -4.460938 6.875 -3.984375 C 7.5 -3.515625 8.375 -3.28125 9.5 -3.28125 Z M 9.5 -3.28125 "/></g></g></g><g fill="#ffffff" fill-opacity="1"><g transform="translate(313.115464, 197.601498)"><g><path d="M 12.609375 0.4375 C 11.515625 0.4375 10.597656 0.269531 9.859375 -0.0625 C 9.128906 -0.394531 8.539062 -0.789062 8.09375 -1.25 C 7.644531 -1.707031 7.3125 -2.125 7.09375 -2.5 C 6.882812 -2.875 6.765625 -3.09375 6.734375 -3.15625 L 6.640625 -3.15625 L 6.640625 7.890625 L 2.109375 7.890625 L 2.109375 -17.734375 L 5.953125 -17.734375 L 6.6875 -13.859375 L 6.78125 -13.859375 C 6.800781 -13.941406 6.898438 -14.179688 7.078125 -14.578125 C 7.253906 -14.984375 7.554688 -15.429688 7.984375 -15.921875 C 8.410156 -16.410156 9 -16.832031 9.75 -17.1875 C 10.5 -17.550781 11.4375 -17.734375 12.5625 -17.734375 C 14.34375 -17.734375 15.769531 -17.34375 16.84375 -16.5625 C 17.925781 -15.789062 18.71875 -14.710938 19.21875 -13.328125 C 19.726562 -11.953125 19.984375 -10.359375 19.984375 -8.546875 C 19.984375 -6.703125 19.722656 -5.109375 19.203125 -3.765625 C 18.679688 -2.429688 17.878906 -1.394531 16.796875 -0.65625 C 15.722656 0.0703125 14.328125 0.4375 12.609375 0.4375 Z M 11.265625 -3.28125 C 12.472656 -3.28125 13.398438 -3.53125 14.046875 -4.03125 C 14.691406 -4.539062 15.132812 -5.203125 15.375 -6.015625 C 15.625 -6.835938 15.75 -7.695312 15.75 -8.59375 C 15.75 -9.476562 15.617188 -10.320312 15.359375 -11.125 C 15.097656 -11.9375 14.628906 -12.585938 13.953125 -13.078125 C 13.285156 -13.566406 12.359375 -13.8125 11.171875 -13.8125 C 10.109375 -13.8125 9.242188 -13.585938 8.578125 -13.140625 C 7.921875 -12.691406 7.441406 -12.070312 7.140625 -11.28125 C 6.835938 -10.488281 6.6875 -9.59375 6.6875 -8.59375 C 6.6875 -7.550781 6.84375 -6.632812 7.15625 -5.84375 C 7.476562 -5.050781 7.976562 -4.425781 8.65625 -3.96875 C 9.332031 -3.507812 10.203125 -3.28125 11.265625 -3.28125 Z M 11.265625 -3.28125 "/></g></g></g><g fill="#ffffff" fill-opacity="1"><g transform="translate(334.343543, 197.601498)"><g><path d="M 1.859375 0 L 1.859375 -24.296875 L 6.390625 -24.296875 L 6.390625 -13.890625 L 6.46875 -13.890625 C 6.5 -13.984375 6.597656 -14.222656 6.765625 -14.609375 C 6.941406 -14.992188 7.242188 -15.429688 7.671875 -15.921875 C 8.109375 -16.410156 8.691406 -16.832031 9.421875 -17.1875 C 10.160156 -17.550781 11.09375 -17.734375 12.21875 -17.734375 C 13.445312 -17.734375 14.460938 -17.515625 15.265625 -17.078125 C 16.078125 -16.648438 16.71875 -16.09375 17.1875 -15.40625 C 17.664062 -14.71875 18.015625 -13.960938 18.234375 -13.140625 C 18.453125 -12.316406 18.585938 -11.507812 18.640625 -10.71875 C 18.703125 -9.925781 18.734375 -9.21875 18.734375 -8.59375 L 18.734375 0 L 14.453125 0 L 14.453125 -8.625 C 14.453125 -9.582031 14.359375 -10.445312 14.171875 -11.21875 C 13.984375 -12 13.613281 -12.632812 13.0625 -13.125 C 12.519531 -13.613281 11.691406 -13.859375 10.578125 -13.859375 C 9.453125 -13.859375 8.585938 -13.585938 7.984375 -13.046875 C 7.378906 -12.515625 6.960938 -11.847656 6.734375 -11.046875 C 6.503906 -10.242188 6.390625 -9.378906 6.390625 -8.453125 L 6.390625 0 Z M 1.859375 0 "/></g></g></g></svg>